<?xml version="1.0" encoding="UTF-8"?>
<svg id="Camada_2" data-name="Camada 2" xmlns="http://www.w3.org/2000/svg" xmlns:xlink="http://www.w3.org/1999/xlink" viewBox="0 0 200 200">
  <defs>
    <style>
      .cls-1 {
        fill: url(#Gradiente_sem_nome_2);
        stroke-width: 0px;
      }
    </style>
    <linearGradient id="Gradiente_sem_nome_2" data-name="Gradiente sem nome 2" x1="0" y1="100" x2="200" y2="100" gradientUnits="userSpaceOnUse">
      <stop offset="0" stop-color="#7ff2f2"/>
      <stop offset="1" stop-color="#33c1c1"/>
    </linearGradient>
  </defs>
  <g id="Camada_1-2" data-name="Camada 1">
    <path class="cls-1" d="m93.75,0c4.17,0,8.33,0,12.5,0,.5.11,1,.28,1.5.32,15.57,1.16,30.15,5.63,43.43,13.81,25.81,15.89,41.71,38.75,47.28,68.64.68,3.63,1.03,7.32,1.53,10.98v12.5c-.16,1.28-.34,2.56-.48,3.85-2.14,19.78-9.31,37.52-21.93,52.91-15.7,19.13-35.78,31.01-60.17,35.45-3.69.67-7.44,1.04-11.17,1.55h-12.5c-2.44-.3-4.89-.56-7.32-.91-18.45-2.62-35.02-9.65-49.42-21.5-19.12-15.72-31.02-35.77-35.45-60.17-.67-3.7-1.04-7.45-1.55-11.17,0-4.17,0-8.33,0-12.5.16-1.28.33-2.56.47-3.84,2.31-21.18,10.32-39.91,24.45-55.88C40.46,16.46,59.82,5.54,82.97,1.51c3.57-.62,7.19-1.01,10.78-1.51Zm15.01,151.1c0-6.29-.02-12.4,0-18.51.03-8.26,0-16.53.18-24.79.1-4.48,2.48-7.91,6.12-10.35,7.05-4.72,15.96-1.56,18.25,6.57.76,2.71,1.02,5.64,1.04,8.47.11,12.17.05,24.34.05,36.51,0,.69,0,1.37,0,2.04h24.26c.03-.64.08-1.15.08-1.67,0-13.34.03-26.68-.02-40.03-.01-2.66-.2-5.33-.52-7.98-1.7-14.35-10.29-23.41-24.11-24.98-9.95-1.14-18.38,1.89-24.31,10.42-.19.28-.47.51-1.01,1.09,0-3.02-.07-5.6.03-8.18.06-1.44-.38-1.91-1.86-1.89-6.96.07-13.93.03-20.89.04-.5,0-1,.1-1.49.15v73.08h24.21Zm-37.89.02c.04-.5.09-.81.09-1.13,0-23.5,0-47,.04-70.5,0-1.52-.68-1.65-1.89-1.65-6.9.04-13.8.01-20.7.02-.56,0-1.13.08-1.7.13v73.12h24.16Zm-25.68-95.86c0,7.42,5.69,12.7,13.61,12.66,7.98-.04,13.78-5.34,13.77-12.59,0-7.4-5.68-12.73-13.58-12.75-8.12-.01-13.8,5.21-13.8,12.67Z"/>
  </g>
</svg>