<?xml version="1.0" encoding="UTF-8"?>
<svg id="Camada_2" data-name="Camada 2" xmlns="http://www.w3.org/2000/svg" viewBox="0 0 296.46 188.21">
  <defs>
    <style>
      .cls-1 {
        fill: #1e1e1e;
        stroke-width: 0px;
      }
    </style>
  </defs>
  <g id="Camada_1-2" data-name="Camada 1">
    <path class="cls-1" d="m250.58,21.83c.53.1,1.05.24,1.58.28,8.24.55,16.5.95,24.72,1.69,3.93.36,7.93.66,11.63,2.44,3.32,1.6,5.83,3.92,7.51,7.23-2.28-2.15-4.09-5.04-8.13-5.23.55,1.01.94,1.71,1.32,2.41-3.66-3.14-8.11-4.37-12.46-5.83-.07.13-.13.26-.2.4.4.23.8.47,1.43.84-1.69-.16-3.11-.3-4.57-.44q.13.75,2.69,1.52c1.07.32,2.14.63,3.25.96-.25.17-.43.3-.7.49,1.9.58,3.76.99,5.49,1.7,1.87.77,3.85,1.55,5.33,2.84,1.12.98,1.59,2.76,2.25,4.22.57,1.26.98,2.59,1.51,3.88.21.51.55.98,1.07,1.88-.79-.28-1.09-.39-1.35-.48-.76,3.09,2.34,3.39,3.5,5.26-.62-.23-1.23-.47-2.09-.79.22.36.35.58.61,1.01-.72-.23-1.29-.41-1.85-.58-.12.09-.25.18-.37.27.68.88,1.22,1.95,2.08,2.6,1.59,1.21,1.47,2.81,1.29,4.41-.08.75-.65,1.18-1.66.91-1.14-.3-2.37-.27-3.27-.35-.28,1.17-.56,1.93-.62,2.72-.03.46.3.93.45,1.41.2.62.37,1.25.53,1.77-1.11-.35-1.97-.58-2.79-.9-.69-.27-1.36-.63-2.01-.99-1.29-.7-2.49-.44-2.85.47-1.16-.96-2.37-1.96-3.77-3.12-.25,1.09-.38,1.67-.58,2.57-1.55-1.43-3.1-2.85-4.97-4.56,1.04.08,1.67.13,2.5.19-4.47-2.47-20.75-8.63-25.53-6.91.4.57.78,1.11,1.38,1.97-9.3-1.1-18.29-1.28-27.29.34-8.6,1.55-17.48,1.78-25.51,5.87.29-.51.58-1.02.87-1.54-.12-.15-.25-.3-.37-.45,4.49-1.26,8.99-2.52,13.48-3.77.21-.06.5.02.63-.1,1.87-1.65,4.21-.87,6.32-1.23,2.16-.37,4.38-.43,6.56-.7,1.22-.15,2.42-.52,3.64-.7,2.09-.31,4.19-.55,6.32-.98-.38-.07-.76-.19-1.15-.19-4.62,0-9.22-.25-13.77,1.24-2.97.97-6.22,1.1-9.35,1.61-.11.02-.23-.02-.32.02-2.52,1.14-5.5.9-7.86,2.62-.48.35-1.35.12-1.99.31-1.78.54-3.84.76-5.22,1.83-3.02,2.35-6.63,3.03-10.01,4.35-1.18.46-2.35.96-3.56,1.32-.54.16-1.18,1.32-1.79.03-.03-.06-.41-.05-.44.01-.86,1.79-2.8,1-4.11,1.75-1.63.93-3.47,1.54-4.95,2.65-2.56,1.91-6.1,2.27-8.05,5.09-2.15.23-3.22,2-4.62,3.29-.65.6-1.11,1.43-1.76,2.03-.6.55-1,1.7-2.23,1.07-.1-.05-.44.27-.6.47-1.12,1.39-2.22,2.8-3.33,4.2-.07.08-.1.2-.18.27-1.49,1.3-2.99,2.59-4.51,3.9-.14-.29-.35-.7-.67-1.33-.46.6-.83,1.08-1.32,1.73-.76-.35-1.63-.75-2.55-1.17-.6.56-.8,2.17-2.39,1.3.78-2.27,1.96-4.06,3.91-5.52,1.55-1.16,2.66-2.93,3.84-4.52.25-.34-.04-1.07-.08-1.62-.59.3-1.19.61-2.01,1.02-.1-.09-.42-.38-.88-.78,2.19-2,4.26-3.9,6.33-5.8.12-.11.25-.32.35-.3,2.25.34,3.03-1.5,3.79-2.89,1.96-3.63,5.09-6.1,8.1-8.7,1.14-.98,2.43-1.78,3.55-2.78.61-.55,1.36-.8,1.38-2.19.01-1.16,1.79-2.48,3.02-3.42,1.76-1.35,3.73-2.42,5.6-3.62.16-.1.36-.4.43-.37,1.72.74,2.43-.95,3.57-1.53,2.34-1.19,4.47-2.84,6.85-3.91,7.43-3.32,14.86-6.64,22.44-9.6,5.36-2.09,10.9-3.8,16.47-5.23,2.99-.77,6.22-.58,9.34-.85,2.09-.18,4.17-.43,6.26-.64,2.49,0,4.97,0,7.46,0Zm20.44,4.64c-12.17-3.12-24.54-1.9-36.86-1.91l-.02.51c12.29.47,24.59.93,36.88,1.4Z"/>
    <path class="cls-1" d="m80.67,188.21c-1.31-.99-2.62-1.97-3.92-2.96-.06.06-.11.11-.17.17.38.71.76,1.43,1.15,2.14-.11.08-.21.16-.32.24-.45-.58-1.13-1.1-1.32-1.76-.61-2.11-1.34-4.25-1.48-6.41-.28-4.36-.2-8.75-.25-13.12,0-.44.18-.89.48-1.32.66,3.43-.36,7.04,1.49,10.63.26-.8.42-1.27.71-2.15.11.71.18,1.03.21,1.35.37,3.5,2.59,5.6,5.43,7.25.65.38,1.21.93,1.66,1.65-1.06-.43-2.12-.86-3.52-1.43.38.75.59,1.14.89,1.72-1.82-.14-1.66-1.75-2.33-2.62-.46-.6-.99-1.15-1.6-1.84-.62-1.28-1.36-2.8-2.28-4.68-1.11,4.33.42,8.6,3.55,10.93.9.67,1.71,1.47,2.57,2.21h-.97Z"/>
    <path class="cls-1" d="m126.19,61.89c.94-1.01,1.98-1.94,2.78-3.06.73-1.03,1.19-2.25,2.1-3.21-1.63,5.5-4.41,10.47-7.01,15.69,1.74-.69,2.14-2.93,4.31-3.13-.64,3.18-1.68,5.95-3.76,8.1-2.58,2.67-4.28,5.86-5.48,9.24-3.96,11.1-7.7,22.28-11.53,33.44-.03.09.02.21.05.51.61-.8,1.13-1.5,1.65-2.19.07.04.15.08.22.12l-2.86,9.03c-.08,0-.16,0-.24-.01-.05-.4-.11-.8-.16-1.2-.08-.02-.17-.04-.25-.06-.82,2.47-1.65,4.94-2.47,7.42,2.08-1.54,1.31-4.92,4.42-5.75.33,2.23-.37,4.35-1.42,6.5.42-.09.64-.14.89-.2-.91,4.03-1.79,7.94-2.68,11.86-.13.57-.3,1.14-.5,1.69-1.02,2.81-2.05,5.62-3.07,8.43-.07.19-.13.48-.04.63,1.32,2.13.14,4.13-.35,6.14-.49,2.01-.95,4.05-1.72,5.96-.45,1.1-1.57,1.9-2.25,2.94-.26.39-.33,1.19-.09,1.56.61.94,1.47,1.71,2.15,2.62.43.57.71,1.26,1.05,1.9-.16.2-.32.39-.48.59-1.35-.46-2.7-.92-4.44-1.52.81,1,1.42,1.74,2.01,2.47-1.3,1.24-2.82,1.32-4.46.86-.29-.08-.68-.03-.95.1-1.08.55-2.27,1-3.16,1.78-.7.61-1.01,1.66-1.49,2.52-1.59-1.22-3.7-2.45-5.27-4.16-1.55-1.69-2.55-3.88-3.8-5.85.11-.1.22-.21.33-.31.34.14.69.28,1.17.49v-8.61c-.59.81-.94,1.29-1.29,1.77l-.51-.16c.06-.92.1-1.83.17-2.75.34-4.35.51-8.71,1.1-13.03.31-2.25,1.34-4.41,2.06-6.6.06-.19.21-.46.37-.51,1.98-.59,1.62-2.37,1.99-3.8.44-1.69.98-3.35,1.46-5.03,1.36-4.74,2.75-9.47,4.06-14.22.77-2.79,1.41-5.61,2.08-8.43.12-.51.14-1.04.19-1.44-3.95-.2-7.79-.32-11.61-.64-1.52-.12-2.98-.87-4.5-1-4.38-.37-8.78-.83-13.17-.76-2.91.04-6.07-.21-8.6,1.89-.24.2-.51.39-.69.63-1.72,2.29-3.44,4.58-5.13,6.88-.72.99-1.33,2.07-2.09,3.02-.61.75-1.42,1.33-2.07,2.05-1.97,2.19-3.87,4.45-5.87,6.61-.86.93-1.97,1.63-2.86,2.53-1.92,1.95-4.53,3.22-5.63,6-.49,1.22-1.45,2.26-2.24,3.36-.14.2-.51.23-.77.34-.28.11-.67.15-.84.35-2.02,2.39-4.02,4.79-5.97,7.23-.45.57-.59,1.39-1.03,1.97-.28.36-.86.49-1.3.72-.12-.19-.24-.39-.37-.58,1.74-2.09,3.48-4.18,5.22-6.27-.1-.1-.2-.2-.29-.3-.95,1-1.91,2-2.93,3.08-.37-2.87,1.42-4.59,2.76-6.52.16-.23.21-.55.07-1.09-.83.56-1.67,1.13-2.5,1.69-.04-.04-.09-.09-.13-.13,4.02-5.25,8.03-10.49,12.05-15.74-.13-.1-.26-.2-.38-.3-2.95,3.69-5.9,7.37-8.85,11.06-.19-.05-.39-.1-.58-.15,0-1.54-.44-3.25.08-4.58,1.42-3.64,3.01-7.25,4.96-10.63,1.8-3.12,4.15-5.92,6.26-8.86.3-.42.59-.86.98-1.42-2.38-.14-4.56-.3-6.74-.41-4.26-.21-8.55-.16-12.77-.7-2.1-.27-3.82.97-5.79.68-.83-.12-1.7-.25-2.47-.56-1.78-.71-3.51-1.54-5.23-2.31q.58-2.68,2.87-2.48c.56,1.26.88,2.68,1.73,3.63.59.66,1.91.66,2.91.95.11-.15.23-.29.34-.44-1.1-1.89-2.2-3.79-3.3-5.68.04-.03.07-.06.11-.09-.55-.89-1.09-1.77-1.76-2.85.96-.9,1.06-2.85,2.99-3.36.16-.04.26-.99.11-1.42-.34-.91-.32-1.44.72-1.86.89-.36,1.69-.99,2.47-1.58,1.33-1.01.12-2-.18-3.19.95.36,1.77.66,2.58.96-.07-.17-.13-.34-.2-.51.5-.4,1.02-.79,1.5-1.22.25-.22.57-.49.62-.78.3-1.88.28-1.88,2.69-1.88-1.64-.76-2.94-1.36-4.25-1.96.07-.18.13-.36.2-.54,1.64.54,3.28,1.07,4.91,1.62.5.17,1.01.37,1.47.64,3.91,2.3,7.78.45,11.6-.21,6.63-1.14,13.21-2.55,19.9-3.86-.04.23-.1.56-.15.88,2.51.66,4.54-.12,6.09-2.06,1.93-2.4,3.86-4.82,6.02-7,15.13-15.21,30.23-30.45,45.56-45.45,4.3-4.21,9.33-7.69,14.04-11.48,5.05-4.06,10.14-8.08,15.18-12.16,1.24-1.01,2.25-2.32,3.55-3.23.95-.67,2.19-.92,3.7-1.51-.38,1.2-1.94,2.24.15,2.42.2.02.55-.01.6-.12,1.33-2.89,3.19.43,4.64-.86.08.16.15.32.23.48-.22,1.3-.45,2.6-.67,3.9-.03.2-.09.53.01.6,1.5,1.03.66,2.06.1,3.16-.2.39-.03.95-.03,1.44,0,1.3,0,2.6,0,3.98.29-.18.75-.47,1.21-.76.18.47.38.99.53,1.39-1.9,3.72-3.83,7.47-5.7,11.24-.13.27.11.73.23,1.31-2.09,1.46-3.32,3.74-4.35,6.21-.42,1.01-1.31,1.81-1.89,2.77-1.55,2.59-3.17,5.15-4.53,7.83-2.85,5.61-5.55,11.29-8.31,16.95-2.32,3.34-4.77,6.6-6,10.53,1.96-3.06,3.87-6.15,5.73-9.27.21-.35.16-.86.24-1.3Zm-28.83,25.65c.58-1.54,1.03-2.9,1.58-4.22,3.98-9.6,7.89-19.23,12.02-28.77,2.14-4.94,4.69-9.7,7.04-14.55.13-.26.15-.57.25-.96-5.26,3.04-5.89,3.93-7.8,6.54.98-.83,1.66-1.41,2.34-1.99,0,.02.02.05.02.07-11.32,10.92-22.64,21.84-34.23,33.02,1.4.65,2.33,1.08,3.44,1.59-1.65,0-3.23-.82-4.92.67,7.67.8,13.54,5.03,20.25,8.58Zm-15.12,83.37c-.07-3.68.48-7.48-1.96-10.68-.98,3.87-.47,7.46,1.96,10.68ZM130.06,12.88c.13.15.25.31.38.46,1.66-1.5,3.33-2.99,4.99-4.49-3.47,1.18-5.22,2.67-5.37,4.03ZM29.1,118.56c.15.12.3.24.45.36.97-1.51,1.94-3.03,2.91-4.54l-.58-.45c-.08.2-.14.42-.26.6-.84,1.35-1.68,2.69-2.52,4.03Z"/>
    <path class="cls-1" d="m179.5,120.08c-.56.61-1.26,1.16-1.69,1.88-1.26,2.09-2.4,4.26-3.6,6.38-1.22,2.15-2.76,4.16-3.61,6.44-1.07,2.88-1.63,5.97-2.31,8.98-.53,2.36-1,4.74-1.33,7.13-.13.92.11,1.93.37,2.84.51,1.76,1.3,3.44,1.72,5.21.47,1.98.48,4-1.08,5.65-.19.2-.42.38-.66.54-.49.32-.97.67-1.49.92-.74.36-1.52.64-2.59,1.08v2.87c-.94-.53-1.89-1.48-2.82-1.47-.82,0-2.04.8-1.55,2.37-3.45-1.43-5.09-4.6-7.57-6.81-2.59-2.3-3.21-5.75-4.59-8.86-.22,1.16-.4,2.15-.59,3.15-.14.01-.27.02-.41.04-.16-.86-.5-1.72-.46-2.57.18-3.87.48-7.74.71-11.61.03-.58.12-1.29-.15-1.74-.89-1.52-.36-2.88.17-4.31,1.98-5.29,3.92-10.6,5.86-15.91.29-.78.5-1.59.69-2.2-.89.15-1.75.16-2.49.46-.35.14-.47.85-.68,1.28-.98.1-2.05.27-3.11.27-.43,0-1.25-.49-1.22-.6.17-.74.32-1.7.85-2.08,1.02-.73,2.28-1.12,3.58-1.71-.69-.87-1.32-1.66-2.23-2.81.54-.63,1.33-1.57,2.07-2.44.4.13.73.29,1.07.3.09,0,.2-.43.3-.67-.38-.1-.77-.31-1.13-.28-.51.05-1.01.28-1.63.25.21-.15.4-.33.63-.43,1.71-.78,3.33-1.66,4.36-3.34.03-.06.45.12.25.06,1.07-.83,1.96-1.57,2.91-2.22.8-.55,1.65-1.01,2.5-1.48,1.58-.86,3.25-1.59,4.75-2.58,1.05-.69,2.05-1.6,2.79-2.61,2.17-3.01,4.04-6.25,6.33-9.17,2.23-2.83,4.83-5.36,7.26-8.02,1.59-1.75,3.15-3.53,4.77-5.24.78-.82,1.66-1.54,2.53-2.26.95-.79,2.02-1.45,2.9-2.31,1.98-1.92,4.18-3.44,6.59-4.82,3.08-1.76,5.85-4.09,8.78-6.13,1.02-.71,1.93-1.75,3.47-1.26.39.12.95-.42,1.46-.58.95-.3,1.92-.57,2.88-.83.2-.05.48.05.64-.05,2.56-1.59,5.11-3.2,7.7-4.83,0,.02.32.49.21.62-1.18,1.51-.6,3.37-1.09,5.01-.51,1.7-.44,3.51-2,4.94-.86.79-.92,2.45-1.35,3.71-.25.72-.52,1.43-.78,2.14l-.41-.07c-.06-.58-.12-1.16-.23-2.25-4.73,5.86-7.49,12.52-12.11,17.93.16.19.31.39.47.58.83-.46,1.67-.93,2.61-1.45-.19.62-.36,1.2-.63,2.11,1.16.15,2.23.41,3.29.39,2.31-.04,4.62-.32,6.93-.3,1.26,0,2.52.39,3.77.67,1.19.26,2.37.6,3.28,1.18.3.4.53,1,.93,1.16,1.15.46,1.65,1.2,1.43,2.48-.3.1-.67.2-1.02.33-1.56.58-1.72,1.27-.69,2.57.7.89,1.8,1.48,1.79,2.92,0,.42,1,.87,1.57,1.26,1.15.8,1.05,1.67.1,2.63-.82.83-1.49,1.62-2.76,1.39.04.63.08,1.25.14,2.11-.57.73-3.58-.6-2.52,2.13-1.52.07-3.13,0-4.67.29-.65.12-1.45.87-1.65,1.51-.17.56.38,1.36.67,2.03.14.33.43.59.72.97-2.11.39-3.49.17-4.56-1.79-.47-.85-2.22-1.03-3.41-1.46-1.31-.47-2.65-.88-3.98-1.27-.29-.09-.63-.01-1.1-.01.18.43.32.78.46,1.13-.17.08-.26.16-.35.15-2.51-.29-4.65.85-6.95,1.56-3.83,1.19-7.86,1.77-11.66,3.04-2.53.84-5.3,1.83-6.21,4.91-.09.31-.08.65-.1.84Zm-27.26,13.6c-2.63,3.37-4,9.2-2.97,12.33,1.06-4.38,2.01-8.35,2.97-12.33Zm-4.76,11.85c-.63,1.25-.48,4.42.67,5.95.11-.97.33-1.62.23-2.21-.23-1.31-.61-2.59-.9-3.74Z"/>
    <path class="cls-1" d="m143.79,124.36c.25,4.01.51,8.02.77,12.21-2.01-4.07-1.36-8.14-.77-12.21Z"/>
    <path class="cls-1" d="m272.22,57c3.17,1.51,5.63,3.56,7.55,6.28-.12.14-.24.29-.37.43-2.34-2.19-4.68-4.37-7.18-6.71Z"/>
    <path class="cls-1" d="m86.85,122.5c.37-1.95.73-3.9,1.1-5.85.26.05.51.1.77.16-.44,1.91-.87,3.83-1.31,5.74-.18-.02-.37-.03-.55-.05Z"/>
  </g>
</svg>