<?xml version="1.0" encoding="UTF-8"?>
<svg id="Camada_2" data-name="Camada 2" xmlns="http://www.w3.org/2000/svg" xmlns:xlink="http://www.w3.org/1999/xlink" viewBox="0 0 200 191.77">
  <defs>
    <style>
      .cls-1 {
        fill: url(#Gradiente_sem_nome_5);
        stroke-width: 0px;
      }
    </style>
    <linearGradient id="Gradiente_sem_nome_5" data-name="Gradiente sem nome 5" x1="0" y1="95.88" x2="200" y2="95.88" gradientUnits="userSpaceOnUse">
      <stop offset="0" stop-color="#7ff2f2"/>
      <stop offset="1" stop-color="#33c1c1"/>
    </linearGradient>
  </defs>
  <g id="Camada_1-2" data-name="Camada 1">
    <path class="cls-1" d="m200,104.05c-.51,3.72-.81,7.49-1.55,11.17-7.14,35.47-27.8,59.85-60.9,73.95-1.91.81-3.88,1.5-5.87,2.1-4.26,1.29-7.13-.83-7.13-5.22,0-7.88-.02-15.76.09-23.63.1-7.58-.8-14.81-6.39-20.56,4.55-.91,9.05-1.59,13.42-2.74,9.98-2.61,18.57-7.45,24.4-16.31,4.67-7.1,6.56-15.09,7.2-23.42.55-7.2.47-14.4-2.68-21.06-1.74-3.66-4.24-6.96-6.33-10.47-.38-.63-.74-1.57-.55-2.19,2.38-7.77,1.72-15.39-.7-23.03-.61-1.91-1.77-2.36-3.3-2.04-3.67.77-7.47,1.33-10.9,2.75-4.35,1.81-8.37,4.43-12.58,6.6-.83.43-1.98.7-2.85.48-15.66-3.85-31.29-3.84-46.95,0-.91.22-2.18-.07-3.01-.58-6.23-3.82-12.57-7.36-19.83-8.86-5.73-1.18-6.43-.76-7.86,4.9-1.69,6.7-1.85,13.37.39,20.01.16.47-.01,1.29-.34,1.66-8.5,9.56-10.48,20.89-9.19,33.17.81,7.8,2.65,15.25,6.97,21.9,5.82,8.95,14.42,13.89,24.47,16.54,4.33,1.14,8.77,1.83,13.25,2.75-.06.11-.15.4-.33.6-2.82,2.98-4.43,6.57-5.11,10.55-.25,1.43-.89,2.12-2.2,2.56-7.37,2.49-14.64,3.05-21.15-2.02-2.45-1.91-4.41-4.57-6.24-7.14-3.57-5.03-7.85-8.85-14.19-9.73-1.07-.15-2.22-.11-3.27.13-.79.19-1.94.73-2.09,1.32-.16.64.53,1.63,1.06,2.29.56.69,1.33,1.26,2.11,1.72,5.21,3.09,8.77,7.67,10.82,13.19,4.69,12.6,16.16,16.74,27.75,15.7,2.13-.19,4.25-.55,6.51-.85.05.48.14.97.15,1.47.06,4.69.12,9.38.14,14.06.03,4.82-3.03,7.13-7.57,5.48C33.37,178.78,11.34,155.12,2.43,119.61c-1.12-4.45-1.42-9.11-2.1-13.67C.24,105.3.11,104.68,0,104.05c0-4.04,0-8.07,0-12.11.54-3.85.94-7.73,1.66-11.55C10.03,36.03,48.1,2.88,93.76.2c23.82-1.4,45.69,4.66,65.08,18.68,21.46,15.52,34.8,36.36,39.63,62.49.67,3.63,1.03,7.31,1.53,10.97v11.72Z"/>
  </g>
</svg>