<?xml version="1.0" encoding="UTF-8"?>
<svg id="Camada_2" data-name="Camada 2" xmlns="http://www.w3.org/2000/svg" xmlns:xlink="http://www.w3.org/1999/xlink" viewBox="0 0 200 200">
  <defs>
    <style>
      .cls-1 {
        fill: url(#Gradiente_sem_nome_4-3);
      }

      .cls-1, .cls-2, .cls-3 {
        stroke-width: 0px;
      }

      .cls-2 {
        fill: url(#Gradiente_sem_nome_4-2);
      }

      .cls-3 {
        fill: url(#Gradiente_sem_nome_4);
      }
    </style>
    <linearGradient id="Gradiente_sem_nome_4" data-name="Gradiente sem nome 4" x1="0" y1="100" x2="200" y2="100" gradientUnits="userSpaceOnUse">
      <stop offset="0" stop-color="#7ff2f2"/>
      <stop offset="1" stop-color="#33c1c1"/>
    </linearGradient>
    <linearGradient id="Gradiente_sem_nome_4-2" data-name="Gradiente sem nome 4" x1="45.91" y1="102.63" x2="154.09" y2="102.63" xlink:href="#Gradiente_sem_nome_4"/>
    <linearGradient id="Gradiente_sem_nome_4-3" data-name="Gradiente sem nome 4" x1="55.96" y1="82.2" x2="143.8" y2="82.2" xlink:href="#Gradiente_sem_nome_4"/>
  </defs>
  <g id="Camada_1-2" data-name="Camada 1">
    <g>
      <path class="cls-3" d="m200,93.75v12.5c-.3,2.44-.57,4.89-.91,7.33-2.85,19.98-10.88,37.61-24.3,52.67-15.41,17.28-34.55,28.07-57.37,32.2-3.69.67-7.44,1.04-11.16,1.56h-12.5c-2.44-.3-4.88-.56-7.32-.91-19.9-2.85-37.49-10.82-52.52-24.17-17.36-15.43-28.21-34.61-32.36-57.49C.89,113.73.51,109.98,0,106.25,0,102.08,0,97.92,0,93.75c.44-3.34.76-6.7,1.33-10.02,3.54-20.8,12.66-38.8,27.48-53.82C43.77,14.75,61.77,5.23,82.78,1.54,86.41.9,90.09.51,93.75,0c4.17,0,8.33,0,12.5,0,3.41.44,6.83.77,10.21,1.35,18.78,3.21,35.4,11.06,49.63,23.72,17.4,15.48,28.28,34.71,32.37,57.69.65,3.64,1.03,7.32,1.54,10.98Zm-100.05-39.19c-16.92,0-33.84,0-50.77,0-8.47,0-13.63,5.17-13.63,13.61,0,21.22,0,42.43,0,63.65,0,8.44,5.16,13.62,13.63,13.62,33.91,0,67.82,0,101.73-.01,1.29,0,2.62-.05,3.87-.35,5.92-1.42,9.66-6.37,9.66-12.77.01-21.28-.14-42.57.08-63.85.08-7.64-5.28-14.12-14-13.99-16.85.26-33.71.08-50.57.08Z"/>
      <path class="cls-2" d="m154.09,70.14v2.63c0,19.46,0,38.92,0,58.39,0,3.63-.38,3.99-4.06,3.99-33.39,0-66.78,0-100.18,0-3.53,0-3.94-.41-3.94-3.91,0-19.53,0-39.05,0-58.58,0-.68,0-1.36,0-2.52,4.11,3.25,7.81,6.18,11.51,9.12,12.89,10.24,25.78,20.48,38.68,30.72,2.85,2.27,4.97,2.26,7.88-.06,15.8-12.54,31.6-25.09,47.39-37.63.75-.6,1.51-1.19,2.72-2.14Z"/>
      <path class="cls-1" d="m55.96,64.94h87.43c.14.15.27.3.41.45-.43.24-.89.43-1.27.73-13.72,10.88-27.43,21.75-41.12,32.66-.93.74-1.55,1.02-2.64.15-13.88-11.09-27.81-22.12-41.72-33.16-.2-.16-.41-.31-1.09-.82Z"/>
    </g>
  </g>
</svg>