<?xml version="1.0" encoding="UTF-8"?>
<svg id="Camada_2" data-name="Camada 2" xmlns="http://www.w3.org/2000/svg" xmlns:xlink="http://www.w3.org/1999/xlink" viewBox="0 0 200 200">
  <defs>
    <style>
      .cls-1 {
        fill: url(#Gradiente_sem_nome_6);
        stroke-width: 0px;
      }
    </style>
    <linearGradient id="Gradiente_sem_nome_6" data-name="Gradiente sem nome 6" x1="0" y1="100" x2="200" y2="100" gradientUnits="userSpaceOnUse">
      <stop offset="0" stop-color="#7ff2f2"/>
      <stop offset="1" stop-color="#33c1c1"/>
    </linearGradient>
  </defs>
  <g id="Camada_1-2" data-name="Camada 1">
    <path class="cls-1" d="m200,94.14v11.72c-.11.56-.29,1.12-.33,1.68-.97,13.95-4.66,27.17-11.41,39.38-15.56,28.16-39.18,45.41-70.83,51.49-3.81.73-7.71,1.06-11.56,1.58h-11.72c-.5-.11-1-.29-1.51-.32-14.02-.95-27.3-4.65-39.58-11.43C24.9,172.68,7.65,149.06,1.58,117.4c-.73-3.81-1.06-7.69-1.58-11.54,0-3.91,0-7.81,0-11.72.11-.56.29-1.12.33-1.68.97-13.95,4.66-27.17,11.41-39.38C27.3,24.91,50.93,7.66,82.58,1.58,86.39.85,90.28.52,94.14,0c3.91,0,7.81,0,11.72,0,.5.11,1,.29,1.51.32,14.02.95,27.3,4.65,39.58,11.43,28.16,15.56,45.41,39.19,51.48,70.84.73,3.81,1.06,7.69,1.58,11.54Zm-125.88-.72c2.86-1.38,5.61-2.69,8.34-4.02,4.32-2.11,5.51-5.24,3.48-9.59-4.33-9.28-6.48-19.02-6.64-29.24-.07-4.42-2.54-6.8-7-6.81-7.09-.02-14.19-.01-21.28,0-4.89,0-7.33,2.47-7.26,7.33.23,16.93,3.88,33.1,12.1,47.92,20.34,36.65,51.6,55.76,93.55,57.22,4.22.15,6.81-2.53,6.82-6.78.02-7.22.02-14.45,0-21.67,0-4.57-2.39-7.01-6.93-7.09-10.08-.17-19.71-2.26-28.87-6.54-4.68-2.18-7.7-1.02-9.98,3.68-1.29,2.66-2.59,5.32-3.91,8.04-13.75-8.03-24.45-18.75-32.43-32.45Z"/>
  </g>
</svg>